/vscmnt/brussel_pixiu_data/_data_brussel/112/vsc11236/PredSimResults/SUBJ07opt3D/trackIG/worker_02.mot
version=1
nRows=7
nColumns=50
inDegrees=yes
endheader
                time	         pelvis_tilt	         pelvis_list	     pelvis_rotation	           pelvis_tx	           pelvis_ty	           pelvis_tz	       hip_flexion_r	     hip_adduction_r	      hip_rotation_r	        knee_angle_r	       ankle_angle_r	         mtp_angle_r	       hip_flexion_l	     hip_adduction_l	      hip_rotation_l	        knee_angle_l	       ankle_angle_l	         mtp_angle_l	    lumbar_extension	      lumbar_bending	     lumbar_rotation	 ercspn_r/activation	 intobl_r/activation	 extobl_r/activation	    abd_r/activation	    add_r/activation	hamstrings_r/activation	bifemsh_r/activation	glut_max_r/activation	iliopsoas_r/activation	rect_fem_r/activation	  vasti_r/activation	gastroc_r/activation	 soleus_r/activation	tib_ant_r/activation	 ercspn_l/activation	 intobl_l/activation	 extobl_l/activation	    abd_l/activation	    add_l/activation	hamstrings_l/activation	bifemsh_l/activation	glut_max_l/activation	iliopsoas_l/activation	rect_fem_l/activation	  vasti_l/activation	gastroc_l/activation	 soleus_l/activation	tib_ant_l/activation	
          0.71072214	         -1.28419905	          0.94607327	         -8.83961376	          0.49750550	          0.86885513	          0.02124328	        -11.51105208	         -0.41480092	          2.27798253	         -7.14723825	         11.46515762	         18.54477649	         24.04546102	         -1.19207916	         -2.46652938	        -10.92643480	          0.09319638	          0.23042696	         -6.50738977	          2.53865593	         -0.85772880	          0.05784975	          0.01000001	          0.01000002	          0.05449903	          0.01000005	          0.01000287	          0.09464124	          0.01000025	          0.11875202	          0.01000102	          0.01000004	          0.11691803	          0.24514811	          0.01916276	          0.12163129	          0.11744435	          0.01000011	          0.01000004	          0.09483579	          0.02738169	          0.08470724	          0.04641061	          0.01529876	          0.01128055	          0.01120037	          0.01493783	          0.01217669	          0.29302723	
          0.72493658	         -1.34211283	          0.82068600	         -8.57297456	          0.50928475	          0.86765079	          0.02012999	        -11.82201713	         -0.34972997	          1.62570315	         -8.02191605	         11.20830297	         19.80430402	         23.52264307	         -0.99479684	         -2.20258579	        -11.34559038	         -0.07904572	          0.22768378	         -6.39254136	          2.20074764	         -0.63951119	          0.07331105	          0.01000001	          0.01000003	          0.04406077	          0.01000008	          0.01002573	          0.07651445	          0.01000137	          0.09600723	          0.01000197	          0.01167966	          0.10368503	          0.24337368	          0.01549248	          0.11116267	          0.11573392	          0.01000007	          0.01000028	          0.09286671	          0.03419526	          0.06848336	          0.05822788	          0.01236859	          0.01000009	          0.01000004	          0.01207680	          0.01000003	          0.31300015	
          0.73915102	         -1.39531836	          0.69414360	         -8.25660457	          0.52125938	          0.86668554	          0.01888672	        -12.05875448	         -0.28153147	          0.94659692	         -9.05605883	         10.83064817	         21.09748094	         23.02251159	         -0.82182326	         -1.95183507	        -11.76686064	         -0.34601957	          0.22295311	         -6.26660584	          1.84604701	         -0.40837998	          0.08742926	          0.01000001	          0.01000003	          0.03562175	          0.01000006	          0.01000646	          0.06185953	          0.01000025	          0.07761880	          0.01892188	          0.01714866	          0.08382607	          0.23746379	          0.01252518	          0.11659591	          0.10790798	          0.01000006	          0.03823766	          0.10479230	          0.03974098	          0.05536676	          0.05206941	          0.01000009	          0.01000013	          0.01784550	          0.01000006	          0.01000001	          0.33809165	
          0.75336547	         -1.44349941	          0.56215540	         -7.89043819	          0.53338143	          0.86608513	          0.01751673	        -12.21187082	         -0.20708171	          0.23990405	        -10.24774685	         10.27346582	         22.41652952	         22.56818158	         -0.66713074	         -1.74281781	        -12.26836726	         -0.57255289	          0.21505950	         -6.13093267	          1.48263947	         -0.16732488	          0.10190817	          0.01000000	          0.01000003	          0.02879906	          0.01000006	          0.01000568	          0.05001149	          0.01000176	          0.06275234	          0.01529803	          0.02269846	          0.06777070	          0.22699521	          0.01012622	          0.11601667	          0.08724021	          0.01000004	          0.06077488	          0.10858779	          0.04538856	          0.04476245	          0.05246240	          0.01000012	          0.01000011	          0.03339537	          0.01000005	          0.01000001	          0.35028919	
          0.76757991	         -1.48704809	          0.42352446	         -7.47947129	          0.54560145	          0.86599432	          0.01603203	        -12.26216434	         -0.12753908	         -0.49233192	        -11.60839034	          9.47748818	         23.75132827	         22.14238088	         -0.52464383	         -1.56745164	        -12.85233612	         -0.59100224	          0.21405720	         -5.98446699	          1.11771830	          0.07962740	          0.11820491	          0.01000001	          0.01000005	          0.02328312	          0.01000052	          0.01364971	          0.04043273	          0.01338689	          0.05073328	          0.01236814	          0.03038652	          0.05479045	          0.21147257	          0.01000003	          0.11268940	          0.07053094	          0.01000005	          0.08007977	          0.11043181	          0.04878393	          0.03618924	          0.05582938	          0.01000014	          0.01000016	          0.04387349	          0.01000008	          0.01000001	          0.34364066	
          0.78179435	         -1.52664170	          0.27709557	         -7.03091303	          0.55785950	          0.86651523	          0.01444724	        -12.19594233	         -0.04383854	         -1.25702342	        -13.13653431	          8.40837847	         25.06034736	         21.72673563	         -0.38912047	         -1.39729820	        -13.50243223	         -0.32112676	          0.26718590	         -5.82774134	          0.75868272	          0.33113986	          0.12726428	          0.01000001	          0.01000003	          0.01882367	          0.02470712	          0.01532379	          0.03268861	          0.01236925	          0.04101624	          0.01000029	          0.03745490	          0.04429633	          0.19037666	          0.01000002	          0.11031550	          0.05702202	          0.01000004	          0.08972704	          0.11509719	          0.05326775	          0.02925822	          0.06669590	          0.01000010	          0.01000010	          0.04955868	          0.01000005	          0.01000001	          0.30910672	
          0.79600879	         -1.56306177	          0.11845033	         -6.55056987	          0.57009647	          0.86765981	          0.01278431	        -11.99608077	          0.04657677	         -2.05888234	        -14.84725805	          7.09010864	         26.25348626	         21.29029985	         -0.26062070	         -1.20354443	        -14.15402807	          0.20816955	          0.40125303	         -5.66323433	          0.41291180	          0.58493997	          0.13338153	          0.01000001	          0.01000004	          0.01521834	          0.04427040	          0.01623433	          0.02642774	          0.01000033	          0.03316034	          0.01000015	          0.04182384	          0.03581217	          0.16574981	          0.01000003	          0.10587615	          0.04610049	          0.01000003	          0.09669509	          0.12505803	          0.05889778	          0.02365483	          0.07474205	          0.01000008	          0.01000009	          0.05097204	          0.01000009	          0.01000001	          0.26841943	
